<svg width="63" height="13" viewBox="0 0 63 13" fill="none" xmlns="http://www.w3.org/2000/svg">
<path d="M0.632 12C0.525333 12 0.434667 11.9627 0.36 11.888C0.285333 11.8133 0.248 11.7227 0.248 11.616V1.2C0.248 1.08267 0.28 0.986666 0.344 0.912C0.418667 0.837333 0.514667 0.799999 0.632 0.799999H4.92C6.2 0.799999 7.208 1.104 7.944 1.712C8.68 2.30933 9.048 3.18933 9.048 4.352C9.048 5.51467 8.68 6.39467 7.944 6.992C7.21867 7.57867 6.21067 7.872 4.92 7.872H2.536V11.616C2.536 11.7227 2.49867 11.8133 2.424 11.888C2.36 11.9627 2.26933 12 2.152 12H0.632ZM4.84 6.096C5.45867 6.096 5.93333 5.952 6.264 5.664C6.59467 5.36533 6.76 4.928 6.76 4.352C6.76 3.79733 6.6 3.36533 6.28 3.056C5.96 2.736 5.48 2.576 4.84 2.576H2.504V6.096H4.84Z" fill="#2959CE"/>
<path d="M17.8848 12C17.7781 12 17.6874 11.968 17.6128 11.904C17.5488 11.8293 17.5168 11.7387 17.5168 11.632V2.672L14.8608 4.72C14.7861 4.784 14.7061 4.816 14.6208 4.816C14.5248 4.816 14.4341 4.76267 14.3488 4.656L13.9328 4.128C13.8794 4.05333 13.8528 3.97867 13.8528 3.904C13.8528 3.776 13.9061 3.67467 14.0128 3.6L17.5008 0.912C17.6181 0.837333 17.7568 0.799999 17.9168 0.799999H18.7328C18.8394 0.799999 18.9248 0.837333 18.9888 0.912C19.0634 0.976 19.1008 1.06133 19.1008 1.168V11.632C19.1008 11.7387 19.0634 11.8293 18.9888 11.904C18.9248 11.968 18.8394 12 18.7328 12H17.8848ZM25.0805 12.16C24.2378 12.16 23.5072 12.0267 22.8885 11.76C22.2805 11.4827 21.8165 11.1253 21.4965 10.688C21.1872 10.2507 21.0218 9.792 21.0005 9.312C21.0005 9.216 21.0325 9.14133 21.0965 9.088C21.1605 9.024 21.2405 8.992 21.3365 8.992H22.1205C22.3445 8.992 22.4938 9.10933 22.5685 9.344C22.7072 9.87733 23.0058 10.256 23.4645 10.48C23.9232 10.6933 24.4618 10.8 25.0805 10.8C25.8378 10.8 26.4405 10.624 26.8885 10.272C27.3365 9.90933 27.5605 9.392 27.5605 8.72C27.5605 7.42933 26.7765 6.784 25.2085 6.784H23.6885C23.5818 6.784 23.4912 6.752 23.4165 6.688C23.3525 6.61333 23.3205 6.52267 23.3205 6.416V5.984C23.3205 5.83467 23.3792 5.69067 23.4965 5.552L26.6005 2.16H21.8805C21.7738 2.16 21.6832 2.128 21.6085 2.064C21.5445 1.98933 21.5125 1.89867 21.5125 1.792V1.184C21.5125 1.07733 21.5445 0.986666 21.6085 0.912C21.6832 0.837333 21.7738 0.799999 21.8805 0.799999H28.2645C28.3818 0.799999 28.4725 0.837333 28.5365 0.912C28.6112 0.976 28.6485 1.06667 28.6485 1.184V1.76C28.6485 1.888 28.5898 2.01067 28.4725 2.128L25.3845 5.568L25.6405 5.584C26.7285 5.616 27.5872 5.89867 28.2165 6.432C28.8458 6.96533 29.1605 7.744 29.1605 8.768C29.1605 9.46133 28.9845 10.064 28.6325 10.576C28.2805 11.088 27.7952 11.4827 27.1765 11.76C26.5578 12.0267 25.8592 12.16 25.0805 12.16ZM35.0099 12.16C34.1779 12.16 33.4472 12.0267 32.8179 11.76C32.1885 11.4827 31.6979 11.088 31.3459 10.576C30.9939 10.064 30.8179 9.46667 30.8179 8.784C30.8179 8.15467 30.9725 7.60533 31.2819 7.136C31.5912 6.656 32.0125 6.288 32.5459 6.032C32.1192 5.78667 31.7885 5.46667 31.5539 5.072C31.3299 4.66667 31.2179 4.19733 31.2179 3.664C31.2179 2.72533 31.5592 1.98933 32.2419 1.456C32.9352 0.911999 33.8579 0.639999 35.0099 0.639999C36.1512 0.639999 37.0632 0.911999 37.7459 1.456C38.4392 1.98933 38.7859 2.72 38.7859 3.648C38.7859 4.18133 38.6685 4.65067 38.4339 5.056C38.2099 5.45067 37.8899 5.776 37.4739 6.032C38.0072 6.288 38.4285 6.656 38.7379 7.136C39.0472 7.60533 39.2019 8.15467 39.2019 8.784C39.2019 9.46667 39.0259 10.064 38.6739 10.576C38.3219 11.088 37.8259 11.4827 37.1859 11.76C36.5565 12.0267 35.8312 12.16 35.0099 12.16ZM35.0099 5.456C35.6499 5.44533 36.1885 5.28 36.6259 4.96C37.0632 4.64 37.2819 4.21867 37.2819 3.696C37.2819 3.16267 37.0632 2.736 36.6259 2.416C36.1992 2.08533 35.6605 1.92 35.0099 1.92C34.3485 1.92 33.7992 2.08 33.3619 2.4C32.9352 2.72 32.7219 3.152 32.7219 3.696C32.7219 4.22933 32.9352 4.656 33.3619 4.976C33.7992 5.296 34.3485 5.456 35.0099 5.456ZM35.0099 10.88C35.7565 10.88 36.3805 10.688 36.8819 10.304C37.3832 9.92 37.6339 9.41333 37.6339 8.784C37.6339 8.15467 37.3832 7.65333 36.8819 7.28C36.3805 6.90667 35.7565 6.72 35.0099 6.72C34.2525 6.72 33.6232 6.90667 33.1219 7.28C32.6205 7.65333 32.3699 8.15467 32.3699 8.784C32.3699 9.41333 32.6205 9.92 33.1219 10.304C33.6232 10.688 34.2525 10.88 35.0099 10.88ZM41.3775 12C41.2708 12 41.1802 11.968 41.1055 11.904C41.0415 11.8293 41.0095 11.7387 41.0095 11.632V10.48C41.0095 10.3733 41.0415 10.288 41.1055 10.224C41.1802 10.1493 41.2708 10.112 41.3775 10.112H42.5295C42.6362 10.112 42.7268 10.1493 42.8015 10.224C42.8762 10.288 42.9135 10.3733 42.9135 10.48V11.632C42.9135 11.7387 42.8762 11.8293 42.8015 11.904C42.7268 11.968 42.6362 12 42.5295 12H41.3775ZM45.1208 12C45.0141 12 44.9234 11.968 44.8488 11.904C44.7848 11.8293 44.7528 11.7387 44.7528 11.632V11.12C44.7528 10.8747 44.8861 10.64 45.1528 10.416L48.5448 7.024C49.3661 6.34133 49.9314 5.78667 50.2408 5.36C50.5501 4.92267 50.7048 4.464 50.7048 3.984C50.7048 3.36533 50.5288 2.88 50.1768 2.528C49.8354 2.176 49.3341 2 48.6727 2C48.0541 2 47.5581 2.18667 47.1848 2.56C46.8114 2.92267 46.5821 3.408 46.4968 4.016C46.4754 4.144 46.4221 4.24 46.3368 4.304C46.2621 4.35733 46.1768 4.384 46.0807 4.384H45.2488C45.1528 4.384 45.0728 4.35733 45.0088 4.304C44.9448 4.24 44.9128 4.16533 44.9128 4.08C44.9341 3.504 45.0888 2.95467 45.3768 2.432C45.6648 1.89867 46.0861 1.46667 46.6408 1.136C47.2061 0.794666 47.8834 0.624 48.6727 0.624C49.8781 0.624 50.7848 0.938666 51.3928 1.568C52.0114 2.18667 52.3208 2.976 52.3208 3.936C52.3208 4.608 52.1501 5.216 51.8088 5.76C51.4781 6.29333 50.9608 6.86933 50.2568 7.488L47.1848 10.608H52.1768C52.2941 10.608 52.3848 10.6453 52.4488 10.72C52.5234 10.784 52.5608 10.8693 52.5608 10.976V11.632C52.5608 11.7387 52.5234 11.8293 52.4488 11.904C52.3741 11.968 52.2834 12 52.1768 12H45.1208ZM58.2874 12.16C57.434 12.16 56.6927 11.9893 56.0634 11.648C55.434 11.296 54.954 10.8267 54.6234 10.24C54.2927 9.65333 54.1274 9.01333 54.1274 8.32C54.1274 7.75467 54.2394 7.22133 54.4634 6.72C54.698 6.208 54.9594 5.75467 55.2474 5.36L58.2874 1.12C58.298 1.10933 58.33 1.072 58.3834 1.008C58.426 0.944 58.4847 0.896 58.5594 0.863999C58.634 0.821333 58.7194 0.799999 58.8154 0.799999H59.6634C59.7594 0.799999 59.834 0.837333 59.8874 0.912C59.9514 0.976 59.9834 1.056 59.9834 1.152C59.9834 1.22667 59.962 1.296 59.9194 1.36L57.5834 4.624C57.818 4.54933 58.122 4.512 58.4954 4.512C59.2634 4.52267 59.9407 4.69867 60.5274 5.04C61.1247 5.38133 61.5834 5.84 61.9034 6.416C62.234 6.992 62.3994 7.62133 62.3994 8.304C62.3994 8.98667 62.234 9.62667 61.9034 10.224C61.5834 10.8107 61.1087 11.28 60.4794 11.632C59.8607 11.984 59.13 12.16 58.2874 12.16ZM58.2714 10.8C58.73 10.8 59.1514 10.704 59.5354 10.512C59.93 10.32 60.2394 10.0373 60.4634 9.664C60.698 9.28 60.8154 8.82667 60.8154 8.304C60.8154 7.792 60.698 7.34933 60.4634 6.976C60.2394 6.60267 59.93 6.32 59.5354 6.128C59.1514 5.936 58.73 5.84 58.2714 5.84C57.8234 5.84 57.402 5.936 57.0074 6.128C56.6234 6.32 56.314 6.60267 56.0794 6.976C55.8447 7.34933 55.7274 7.792 55.7274 8.304C55.7274 8.82667 55.8447 9.28 56.0794 9.664C56.314 10.0373 56.6234 10.32 57.0074 10.512C57.3914 10.704 57.8127 10.8 58.2714 10.8Z" fill="#555555"/>
</svg>
