<svg width="70" height="36" viewBox="0 0 70 36" fill="none" xmlns="http://www.w3.org/2000/svg">
<rect width="70" height="36" rx="18" fill="#DCE6FF"/>
<circle cx="18" cy="18" r="15" fill="white"/>
<path d="M17.397 13.9C17.4663 13.9 17.527 13.926 17.579 13.978C17.631 14.03 17.657 14.0907 17.657 14.16C17.657 14.2293 17.644 14.29 17.618 14.342L14.966 20.348C14.6627 21.0327 14.3897 21.557 14.147 21.921C13.913 22.2763 13.6357 22.545 13.315 22.727C12.9943 22.909 12.5783 23 12.067 23H11.547C11.4603 23 11.3867 22.974 11.326 22.922C11.274 22.8613 11.248 22.7877 11.248 22.701V22.155C11.248 22.0683 11.274 21.9947 11.326 21.934C11.3867 21.8733 11.4603 21.843 11.547 21.843H12.002C12.3487 21.843 12.6347 21.739 12.86 21.531C13.094 21.3143 13.3323 20.9547 13.575 20.452L10.208 14.316C10.182 14.264 10.169 14.2163 10.169 14.173C10.169 14.1037 10.195 14.043 10.247 13.991C10.3077 13.9303 10.3727 13.9 10.442 13.9H11.183C11.313 13.9 11.417 13.9737 11.495 14.121L14.199 19.048L16.37 14.121C16.396 14.0517 16.4393 13.9997 16.5 13.965C16.5607 13.9217 16.6257 13.9 16.695 13.9H17.397ZM21.5293 23.13C20.8446 23.13 20.2553 23.0303 19.7613 22.831C19.2759 22.623 18.8989 22.3457 18.6303 21.999C18.3616 21.6437 18.2056 21.2493 18.1623 20.816V20.79C18.1623 20.7207 18.1883 20.6687 18.2403 20.634C18.2923 20.5907 18.3573 20.569 18.4353 20.569H19.0853C19.1806 20.569 19.2586 20.5907 19.3193 20.634C19.3799 20.6687 19.4233 20.738 19.4493 20.842C19.5533 21.206 19.7829 21.4963 20.1383 21.713C20.4936 21.921 20.9529 22.025 21.5163 22.025C22.1403 22.025 22.6603 21.882 23.0763 21.596C23.5009 21.31 23.7133 20.92 23.7133 20.426C23.7133 19.9147 23.5269 19.5203 23.1543 19.243C22.7903 18.957 22.2919 18.814 21.6593 18.814H20.7363C20.6496 18.814 20.5759 18.788 20.5153 18.736C20.4633 18.6753 20.4373 18.6017 20.4373 18.515V18.06C20.4373 17.9647 20.4633 17.891 20.5153 17.839C20.5759 17.7783 20.6496 17.748 20.7363 17.748H21.6073C22.1619 17.748 22.5996 17.6267 22.9203 17.384C23.2496 17.1413 23.4143 16.773 23.4143 16.279C23.4143 15.8543 23.2366 15.5163 22.8813 15.265C22.5259 15.005 22.0839 14.875 21.5553 14.875C21.0093 14.875 20.5629 14.9747 20.2163 15.174C19.8696 15.3733 19.6529 15.6767 19.5663 16.084C19.5229 16.2573 19.4189 16.344 19.2543 16.344H18.5523C18.4743 16.344 18.4049 16.318 18.3443 16.266C18.2923 16.214 18.2706 16.149 18.2793 16.071C18.3399 15.3777 18.6519 14.823 19.2153 14.407C19.7786 13.9823 20.5673 13.77 21.5813 13.77C22.2399 13.77 22.8033 13.8827 23.2713 14.108C23.7479 14.3333 24.1033 14.6323 24.3373 15.005C24.5799 15.3777 24.7013 15.7807 24.7013 16.214C24.7013 17.1413 24.3546 17.8087 23.6613 18.216C24.1119 18.4413 24.4499 18.749 24.6753 19.139C24.9006 19.5203 25.0133 19.958 25.0133 20.452C25.0133 20.9807 24.8703 21.4487 24.5843 21.856C24.2983 22.2547 23.8909 22.5667 23.3623 22.792C22.8423 23.0173 22.2313 23.13 21.5293 23.13Z" fill="black"/>
<path d="M42.43 23C42.3433 23 42.2697 22.974 42.209 22.922C42.157 22.8613 42.131 22.7877 42.131 22.701V14.212C42.131 14.1167 42.157 14.043 42.209 13.991C42.2697 13.9303 42.3433 13.9 42.43 13.9H45.732C46.7113 13.9 47.4827 14.1383 48.046 14.615C48.6093 15.0917 48.891 15.7807 48.891 16.682C48.891 17.5833 48.6093 18.2723 48.046 18.749C47.4913 19.217 46.72 19.451 45.732 19.451H43.431V22.701C43.431 22.7877 43.4007 22.8613 43.34 22.922C43.2793 22.974 43.2057 23 43.119 23H42.43ZM45.667 18.359C46.2997 18.359 46.7763 18.216 47.097 17.93C47.4263 17.644 47.591 17.228 47.591 16.682C47.591 16.136 47.4307 15.72 47.11 15.434C46.7893 15.1393 46.3083 14.992 45.667 14.992H43.418V18.359H45.667ZM56.7378 13.9C56.8072 13.9 56.8678 13.926 56.9198 13.978C56.9718 14.03 56.9978 14.0907 56.9978 14.16C56.9978 14.2293 56.9848 14.29 56.9588 14.342L54.3068 20.348C54.0035 21.0327 53.7305 21.557 53.4878 21.921C53.2538 22.2763 52.9765 22.545 52.6558 22.727C52.3352 22.909 51.9192 23 51.4078 23H50.8878C50.8012 23 50.7275 22.974 50.6668 22.922C50.6148 22.8613 50.5888 22.7877 50.5888 22.701V22.155C50.5888 22.0683 50.6148 21.9947 50.6668 21.934C50.7275 21.8733 50.8012 21.843 50.8878 21.843H51.3428C51.6895 21.843 51.9755 21.739 52.2008 21.531C52.4348 21.3143 52.6732 20.9547 52.9158 20.452L49.5488 14.316C49.5228 14.264 49.5098 14.2163 49.5098 14.173C49.5098 14.1037 49.5358 14.043 49.5878 13.991C49.6485 13.9303 49.7135 13.9 49.7828 13.9H50.5238C50.6538 13.9 50.7578 13.9737 50.8358 14.121L53.5398 19.048L55.7108 14.121C55.7368 14.0517 55.7802 13.9997 55.8408 13.965C55.9015 13.9217 55.9665 13.9 56.0358 13.9H56.7378Z" fill="#A6A6A6"/>
</svg>
