<svg width="68" height="15" viewBox="0 0 68 15" fill="none" xmlns="http://www.w3.org/2000/svg">
<path d="M4.656 14.6C4.54933 14.6 4.45333 14.5627 4.368 14.488C4.29333 14.4133 4.256 14.3173 4.256 14.2V13.096C3.46667 13 2.78933 12.7973 2.224 12.488C1.66933 12.1787 1.248 11.8053 0.96 11.368C0.682667 10.92 0.533333 10.4453 0.512 9.944C0.512 9.85867 0.544 9.784 0.608 9.72C0.682667 9.64533 0.768 9.608 0.864 9.608H2.88C3.008 9.608 3.10933 9.63467 3.184 9.688C3.26933 9.73067 3.35467 9.8 3.44 9.896C3.57867 10.1733 3.79733 10.4027 4.096 10.584C4.40533 10.7653 4.82133 10.856 5.344 10.856C5.952 10.856 6.416 10.76 6.736 10.568C7.056 10.376 7.216 10.1147 7.216 9.784C7.216 9.54933 7.13067 9.35733 6.96 9.208C6.8 9.05867 6.544 8.92533 6.192 8.808C5.84 8.69067 5.31733 8.55733 4.624 8.408C3.33333 8.152 2.37333 7.76267 1.744 7.24C1.11467 6.71733 0.8 5.976 0.8 5.016C0.8 4.16267 1.10933 3.43733 1.728 2.84C2.34667 2.232 3.18933 1.85867 4.256 1.72V0.599999C4.256 0.482666 4.29333 0.386666 4.368 0.311999C4.45333 0.237333 4.54933 0.2 4.656 0.2H5.984C6.10133 0.2 6.19733 0.237333 6.272 0.311999C6.34667 0.386666 6.384 0.482666 6.384 0.599999V1.752C7.088 1.86933 7.69067 2.09333 8.192 2.424C8.704 2.744 9.09333 3.112 9.36 3.528C9.62667 3.944 9.77067 4.35467 9.792 4.76C9.792 4.84533 9.76 4.92533 9.696 5C9.632 5.064 9.552 5.096 9.456 5.096H7.344C7.216 5.096 7.10933 5.07467 7.024 5.032C6.94933 4.98933 6.88 4.92 6.816 4.824C6.752 4.57867 6.576 4.37067 6.288 4.2C6.01067 4.02933 5.664 3.944 5.248 3.944C4.768 3.944 4.4 4.02933 4.144 4.2C3.888 4.37067 3.76 4.62133 3.76 4.952C3.76 5.176 3.82933 5.36267 3.968 5.512C4.11733 5.66133 4.352 5.8 4.672 5.928C5.00267 6.04533 5.472 6.168 6.08 6.296C7.072 6.47733 7.86133 6.70667 8.448 6.984C9.03467 7.25067 9.46667 7.59733 9.744 8.024C10.0213 8.45067 10.16 8.99467 10.16 9.656C10.16 10.5947 9.81867 11.3627 9.136 11.96C8.45333 12.5573 7.536 12.9307 6.384 13.08V14.2C6.384 14.3173 6.34667 14.4133 6.272 14.488C6.19733 14.5627 6.10133 14.6 5.984 14.6H4.656Z" fill="#2959CE"/>
<path d="M19.0254 13C18.9187 13 18.828 12.968 18.7534 12.904C18.6894 12.8293 18.6574 12.7387 18.6574 12.632V3.672L16.0014 5.72C15.9267 5.784 15.8467 5.816 15.7614 5.816C15.6654 5.816 15.5747 5.76267 15.4894 5.656L15.0734 5.128C15.02 5.05333 14.9934 4.97867 14.9934 4.904C14.9934 4.776 15.0467 4.67467 15.1534 4.6L18.6414 1.912C18.7587 1.83733 18.8974 1.8 19.0574 1.8H19.8734C19.98 1.8 20.0654 1.83733 20.1294 1.912C20.204 1.976 20.2414 2.06133 20.2414 2.168V12.632C20.2414 12.7387 20.204 12.8293 20.1294 12.904C20.0654 12.968 19.98 13 19.8734 13H19.0254ZM26.5251 13.16C25.1491 13.16 24.1411 12.76 23.5011 11.96C22.8611 11.16 22.5198 10.1093 22.4771 8.808C22.4665 8.52 22.4611 8.056 22.4611 7.416C22.4611 6.75467 22.4665 6.27467 22.4771 5.976C22.5091 4.696 22.8505 3.656 23.5011 2.856C24.1518 2.04533 25.1598 1.64 26.5251 1.64C27.9011 1.64 28.9145 2.04533 29.5651 2.856C30.2158 3.656 30.5571 4.696 30.5891 5.976C30.6105 6.57333 30.6211 7.05333 30.6211 7.416C30.6211 7.768 30.6105 8.232 30.5891 8.808C30.5465 10.1093 30.2051 11.16 29.5651 11.96C28.9251 12.76 27.9118 13.16 26.5251 13.16ZM26.5251 11.784C27.3251 11.784 27.9278 11.5173 28.3331 10.984C28.7491 10.4507 28.9678 9.69867 28.9891 8.728C29.0105 8.10933 29.0211 7.66133 29.0211 7.384C29.0211 7.08533 29.0105 6.648 28.9891 6.072C28.9678 5.112 28.7545 4.36 28.3491 3.816C27.9438 3.272 27.3358 3 26.5251 3C25.7251 3 25.1171 3.272 24.7011 3.816C24.2958 4.36 24.0825 5.112 24.0611 6.072L24.0451 7.384L24.0611 8.728C24.0825 9.69867 24.2958 10.4507 24.7011 10.984C25.1171 11.5173 25.7251 11.784 26.5251 11.784ZM36.0254 13C35.9187 13 35.828 12.968 35.7534 12.904C35.6894 12.8293 35.6574 12.7387 35.6574 12.632V3.672L33.0014 5.72C32.9267 5.784 32.8467 5.816 32.7614 5.816C32.6654 5.816 32.5747 5.76267 32.4894 5.656L32.0734 5.128C32.02 5.05333 31.9934 4.97867 31.9934 4.904C31.9934 4.776 32.0467 4.67467 32.1534 4.6L35.6414 1.912C35.7587 1.83733 35.8974 1.8 36.0574 1.8H36.8734C36.98 1.8 37.0654 1.83733 37.1294 1.912C37.204 1.976 37.2414 2.06133 37.2414 2.168V12.632C37.2414 12.7387 37.204 12.8293 37.1294 12.904C37.0654 12.968 36.98 13 36.8734 13H36.0254ZM43.2211 13.16C42.3785 13.16 41.6478 13.0267 41.0291 12.76C40.4211 12.4827 39.9571 12.1253 39.6371 11.688C39.3278 11.2507 39.1625 10.792 39.1411 10.312C39.1411 10.216 39.1731 10.1413 39.2371 10.088C39.3011 10.024 39.3811 9.992 39.4771 9.992H40.2611C40.4851 9.992 40.6345 10.1093 40.7091 10.344C40.8478 10.8773 41.1465 11.256 41.6051 11.48C42.0638 11.6933 42.6025 11.8 43.2211 11.8C43.9785 11.8 44.5811 11.624 45.0291 11.272C45.4771 10.9093 45.7011 10.392 45.7011 9.72C45.7011 8.42933 44.9171 7.784 43.3491 7.784H41.8291C41.7225 7.784 41.6318 7.752 41.5571 7.688C41.4931 7.61333 41.4611 7.52267 41.4611 7.416V6.984C41.4611 6.83467 41.5198 6.69067 41.6371 6.552L44.7411 3.16H40.0211C39.9145 3.16 39.8238 3.128 39.7491 3.064C39.6851 2.98933 39.6531 2.89867 39.6531 2.792V2.184C39.6531 2.07733 39.6851 1.98667 39.7491 1.912C39.8238 1.83733 39.9145 1.8 40.0211 1.8H46.4051C46.5225 1.8 46.6131 1.83733 46.6771 1.912C46.7518 1.976 46.7891 2.06667 46.7891 2.184V2.76C46.7891 2.888 46.7305 3.01067 46.6131 3.128L43.5251 6.568L43.7811 6.584C44.8691 6.616 45.7278 6.89867 46.3571 7.432C46.9865 7.96533 47.3011 8.744 47.3011 9.768C47.3011 10.4613 47.1251 11.064 46.7731 11.576C46.4211 12.088 45.9358 12.4827 45.3171 12.76C44.6985 13.0267 43.9998 13.16 43.2211 13.16ZM50.4465 13C50.3505 13 50.2705 12.968 50.2065 12.904C50.1532 12.8293 50.1265 12.744 50.1265 12.648L50.1585 12.504L54.1425 3.192H48.8945C48.7878 3.192 48.6972 3.16 48.6225 3.096C48.5585 3.02133 48.5265 2.93067 48.5265 2.824V2.184C48.5265 2.06667 48.5585 1.976 48.6225 1.912C48.6972 1.83733 48.7878 1.8 48.8945 1.8H55.4545C55.5718 1.8 55.6625 1.83733 55.7265 1.912C55.8012 1.976 55.8385 2.06667 55.8385 2.184V2.776C55.8385 2.968 55.7958 3.176 55.7105 3.4L51.7745 12.6C51.7212 12.7173 51.6572 12.8133 51.5825 12.888C51.5185 12.9627 51.4278 13 51.3105 13H50.4465ZM56.6588 13C56.5521 13 56.4614 12.968 56.3868 12.904C56.3228 12.8293 56.2908 12.7387 56.2908 12.632V11.48C56.2908 11.3733 56.3228 11.288 56.3868 11.224C56.4614 11.1493 56.5521 11.112 56.6588 11.112H57.8108C57.9174 11.112 58.0081 11.1493 58.0828 11.224C58.1574 11.288 58.1948 11.3733 58.1948 11.48V12.632C58.1948 12.7387 58.1574 12.8293 58.0828 12.904C58.0081 12.968 57.9174 13 57.8108 13H56.6588ZM60.402 13C60.2953 13 60.2047 12.968 60.13 12.904C60.066 12.8293 60.034 12.7387 60.034 12.632V12.12C60.034 11.8747 60.1673 11.64 60.434 11.416L63.826 8.024C64.6473 7.34133 65.2127 6.78667 65.522 6.36C65.8313 5.92267 65.986 5.464 65.986 4.984C65.986 4.36533 65.81 3.88 65.458 3.528C65.1167 3.176 64.6153 3 63.954 3C63.3353 3 62.8393 3.18667 62.466 3.56C62.0927 3.92267 61.8633 4.408 61.778 5.016C61.7567 5.144 61.7033 5.24 61.618 5.304C61.5433 5.35733 61.458 5.384 61.362 5.384H60.53C60.434 5.384 60.354 5.35733 60.29 5.304C60.226 5.24 60.194 5.16533 60.194 5.08C60.2153 4.504 60.37 3.95467 60.658 3.432C60.946 2.89867 61.3673 2.46667 61.922 2.136C62.4873 1.79467 63.1647 1.624 63.954 1.624C65.1593 1.624 66.066 1.93867 66.674 2.568C67.2927 3.18667 67.602 3.976 67.602 4.936C67.602 5.608 67.4313 6.216 67.09 6.76C66.7593 7.29333 66.242 7.86933 65.538 8.488L62.466 11.608H67.458C67.5753 11.608 67.666 11.6453 67.73 11.72C67.8047 11.784 67.842 11.8693 67.842 11.976V12.632C67.842 12.7387 67.8047 12.8293 67.73 12.904C67.6553 12.968 67.5647 13 67.458 13H60.402Z" fill="#555555"/>
</svg>
