<svg width="90" height="90" viewBox="0 0 90 90" fill="none" xmlns="http://www.w3.org/2000/svg">
<path d="M47.8125 81.5625C49.3658 81.5625 50.625 80.3033 50.625 78.75C50.625 77.1967 49.3658 75.9375 47.8125 75.9375C46.2592 75.9375 45 77.1967 45 78.75C45 80.3033 46.2592 81.5625 47.8125 81.5625Z" fill="#5FFFBA"/>
<path d="M53.4375 11.25H36.5625V14.0625H53.4375V11.25Z" fill="#2D2220"/>
<path d="M36.5625 11.25V14.0625H53.4375V11.25H36.5625ZM36.5625 11.25V14.0625H53.4375V11.25H36.5625ZM36.5625 11.25V14.0625H53.4375V11.25H36.5625ZM36.5625 11.25V14.0625H53.4375V11.25H36.5625ZM28.125 67.5V70.3125H61.875V67.5H28.125ZM36.5625 11.25V14.0625H53.4375V11.25H36.5625ZM28.125 67.5V70.3125H61.875V67.5H28.125ZM36.5625 11.25V14.0625H53.4375V11.25H36.5625ZM28.125 67.5V70.3125H61.875V67.5H28.125ZM64.6875 5.625H25.3125C23.7656 5.625 22.5 6.89062 22.5 8.4375V22.5H25.3125V19.6875H64.6875V78.75C64.6875 80.2969 63.4219 81.5625 61.875 81.5625H28.125C26.5781 81.5625 25.3125 80.2969 25.3125 78.75V36.5625H22.5V81.5625C22.5 83.1094 23.7656 84.375 25.3125 84.375H64.6875C66.2344 84.375 67.5 83.1094 67.5 81.5625V8.4375C67.5 6.89062 66.2344 5.625 64.6875 5.625ZM64.6875 16.875H25.3125V11.25C25.3125 9.70312 26.5781 8.4375 28.125 8.4375H61.875C63.4219 8.4375 64.6875 9.70312 64.6875 11.25V16.875ZM61.875 67.5H28.125V70.3125H61.875V67.5ZM36.5625 14.0625H53.4375V11.25H36.5625V14.0625ZM28.125 67.5V70.3125H61.875V67.5H28.125ZM36.5625 11.25V14.0625H53.4375V11.25H36.5625ZM36.5625 11.25V14.0625H53.4375V11.25H36.5625ZM36.5625 11.25V14.0625H53.4375V11.25H36.5625ZM36.5625 11.25V14.0625H53.4375V11.25H36.5625Z" fill="#2D2220"/>
<path d="M53.4375 11.25H36.5625V14.0625H53.4375V11.25Z" fill="#2D2220"/>
<path d="M53.4375 11.25H36.5625V14.0625H53.4375V11.25Z" fill="#2D2220"/>
<path d="M53.4375 11.25H36.5625V14.0625H53.4375V11.25Z" fill="#2D2220"/>
<path d="M56.25 14.0625H39.375V16.875H56.25V14.0625Z" fill="#5FFFBA"/>
<path d="M45 19.6875H42.1875V67.5H45V19.6875Z" fill="#5FFFBA"/>
<path d="M39.375 19.6875H36.5625V67.5H39.375V19.6875Z" fill="#5FFFBA"/>
<path d="M64.6875 19.6875H47.8125V67.5H64.6875V19.6875Z" fill="#5FFFBA"/>
<path d="M45 78.75C46.5533 78.75 47.8125 77.4908 47.8125 75.9375C47.8125 74.3842 46.5533 73.125 45 73.125C43.4467 73.125 42.1875 74.3842 42.1875 75.9375C42.1875 77.4908 43.4467 78.75 45 78.75Z" fill="#2D2220"/>
<path d="M28.125 26.7188C28.125 25.9425 27.495 25.3125 26.7188 25.3125H21.0938C20.3175 25.3125 19.6875 25.9425 19.6875 26.7188C19.6875 27.495 20.3175 28.125 21.0938 28.125H26.7188C27.495 28.125 28.125 27.495 28.125 26.7188Z" fill="#2D2220"/>
<path d="M28.125 32.3438C28.125 31.5675 27.495 30.9375 26.7188 30.9375H21.0938C20.3175 30.9375 19.6875 31.5675 19.6875 32.3438C19.6875 33.12 20.3175 33.75 21.0938 33.75H26.7188C27.495 33.75 28.125 33.12 28.125 32.3438Z" fill="#2D2220"/>
</svg>
