<svg width="90" height="90" viewBox="0 0 90 90" fill="none" xmlns="http://www.w3.org/2000/svg">
<path d="M73.125 19.6875V56.25H43.5938C42.8062 56.25 42.1875 55.6312 42.1875 54.8438C42.1875 54.0563 42.8062 53.4375 43.5938 53.4375H70.3125V22.5H19.6875V53.4375H23.9062C24.6937 53.4375 25.3125 54.0563 25.3125 54.8438C25.3125 55.6312 24.6937 56.25 23.9062 56.25H16.875V19.6875H73.125Z" fill="#2D2220"/>
<path d="M70.3125 22.5H39.375V53.4375H70.3125V22.5Z" fill="#FFD561"/>
<path d="M36.5625 22.5H33.75V53.4375H36.5625V22.5Z" fill="#FFD561"/>
<path d="M30.9375 22.5H28.125V53.4375H30.9375V22.5Z" fill="#FFD561"/>
<path d="M87.1875 78.75H2.8125V81.5625H87.1875V78.75Z" fill="#FFD561"/>
<path d="M64.6875 15.4688C64.6875 16.2562 64.0688 16.875 63.2812 16.875H40.7812C39.9937 16.875 39.375 16.2562 39.375 15.4688C39.375 14.6812 39.9937 14.0625 40.7812 14.0625H63.2812C64.0688 14.0625 64.6875 14.6812 64.6875 15.4688Z" fill="#2D2220"/>
<path d="M86.7938 74.5031L78.3563 60.4406C78.1847 60.1566 77.9597 59.9062 77.7094 59.7094C78.3281 58.8937 78.75 57.7969 78.75 56.25V19.6875C78.75 19.6875 78.75 14.0625 73.125 14.0625C67.5 14.0625 67.5 14.0625 67.5 14.0625H68.9063C68.1187 14.0625 67.5 14.6812 67.5 15.4688C67.5 16.2562 68.1187 16.875 68.9063 16.875H73.125C75.4031 16.875 75.9094 18.4219 75.9375 19.6875V56.25C75.9375 58.5281 74.3906 59.0344 73.125 59.0625H16.875C14.5969 59.0625 14.0906 57.5156 14.0625 56.25V19.6875C14.0625 17.4094 15.6094 16.9031 16.875 16.875H63.2812C64.0659 16.875 64.6875 16.2562 64.6875 15.4688C64.6875 14.6812 64.0659 14.0625 63.2812 14.0625H16.875C16.875 14.0625 11.25 14.0625 11.25 19.6875V56.25C11.25 56.25 11.25 58.1062 12.3187 59.6812C12.0656 59.8781 11.8125 60.1312 11.6437 60.4434L3.20625 74.5059C2.7 75.3497 2.67187 76.4437 3.17812 77.3184C3.68437 78.2156 4.6125 78.75 5.625 78.75H84.375C85.3875 78.75 86.3156 78.2156 86.8219 77.3156C87.3281 76.4437 87.3 75.3469 86.7938 74.5031ZM5.625 75.9375L14.0625 61.875H75.9375L84.375 75.9375H5.625Z" fill="#2D2220"/>
<path d="M39.375 54.8438C39.375 54.0675 38.745 53.4375 37.9688 53.4375H29.5312C28.755 53.4375 28.125 54.0675 28.125 54.8438C28.125 55.62 28.755 56.25 29.5312 56.25H37.9688C38.745 56.25 39.375 55.62 39.375 54.8438Z" fill="#2D2220"/>
<path d="M53.4375 71.7188C53.4375 70.9425 52.8075 70.3125 52.0312 70.3125H15.4688C14.6925 70.3125 14.0625 70.9425 14.0625 71.7188C14.0625 72.495 14.6925 73.125 15.4688 73.125H52.0312C52.8075 73.125 53.4375 72.495 53.4375 71.7188Z" fill="#2D2220"/>
<path d="M64.6875 71.7188C64.6875 70.9425 64.0575 70.3125 63.2812 70.3125H60.4688C59.6925 70.3125 59.0625 70.9425 59.0625 71.7188C59.0625 72.495 59.6925 73.125 60.4688 73.125H63.2812C64.0575 73.125 64.6875 72.495 64.6875 71.7188Z" fill="#2D2220"/>
<path d="M75.9375 71.7188C75.9375 70.9425 75.3075 70.3125 74.5312 70.3125H71.7188C70.9425 70.3125 70.3125 70.9425 70.3125 71.7188C70.3125 72.495 70.9425 73.125 71.7188 73.125H74.5312C75.3075 73.125 75.9375 72.495 75.9375 71.7188Z" fill="#2D2220"/>
<path d="M70.3125 66.0938C70.3125 65.3175 69.6825 64.6875 68.9062 64.6875H43.5938C42.8175 64.6875 42.1875 65.3175 42.1875 66.0938C42.1875 66.87 42.8175 67.5 43.5938 67.5H68.9062C69.6825 67.5 70.3125 66.87 70.3125 66.0938Z" fill="#2D2220"/>
<path d="M36.5625 66.0938C36.5625 65.3175 35.9325 64.6875 35.1562 64.6875H32.3438C31.5675 64.6875 30.9375 65.3175 30.9375 66.0938C30.9375 66.87 31.5675 67.5 32.3438 67.5H35.1562C35.9325 67.5 36.5625 66.87 36.5625 66.0938Z" fill="#2D2220"/>
<path d="M25.3125 66.0938C25.3125 65.3175 24.6825 64.6875 23.9062 64.6875H21.0938C20.3175 64.6875 19.6875 65.3175 19.6875 66.0938C19.6875 66.87 20.3175 67.5 21.0938 67.5H23.9062C24.6825 67.5 25.3125 66.87 25.3125 66.0938Z" fill="#2D2220"/>
</svg>
