<svg width="90" height="90" viewBox="0 0 90 90" fill="none" xmlns="http://www.w3.org/2000/svg">
<path d="M36.5625 22.5H33.75V61.875H36.5625V22.5Z" fill="#FFD561"/>
<path d="M30.9375 22.5H28.125V61.875H30.9375V22.5Z" fill="#FFD561"/>
<path d="M39.375 22.5V61.875H78.75V28.125C78.75 28.125 75.9375 22.5 73.125 22.5H39.375Z" fill="#FFD561"/>
<path d="M80.1562 16.875H9.84375C7.50938 16.875 5.625 18.7594 5.625 21.0938V66.0938C5.625 68.4281 7.50938 70.3125 9.84375 70.3125H42.1875V75.9375H28.125V78.75H61.875V75.9375H47.8125V70.3125H80.1562C82.4906 70.3125 84.375 68.4281 84.375 66.0938V21.0938C84.375 18.7594 82.4906 16.875 80.1562 16.875ZM81.5625 59.0625H16.875V61.875H81.5625V66.0938C81.5625 66.8812 80.9437 67.5 80.1562 67.5H9.84375C9.05625 67.5 8.4375 66.8812 8.4375 66.0938V21.0938C8.4375 20.3063 9.05625 19.6875 9.84375 19.6875H80.1562C80.9437 19.6875 81.5625 20.3063 81.5625 21.0938V59.0625Z" fill="#2D2220"/>
<path d="M78.75 26.7188V54.8438H75.9375V26.7188C75.9375 25.5938 75.15 25.3406 74.5031 25.3125H15.4688C14.3438 25.3125 14.0906 26.0719 14.0625 26.7469V61.875H11.25V26.7188C11.25 25.0312 12.375 22.5 15.4688 22.5H74.5312C76.2188 22.5 78.75 23.625 78.75 26.7188Z" fill="#2D2220"/>
<path d="M53.4375 78.75H30.9375V81.5625H53.4375V78.75Z" fill="#FFD561"/>
<path d="M64.6875 78.75H56.25V81.5625H64.6875V78.75Z" fill="#FFD561"/>
</svg>
